<svg xmlns="http://www.w3.org/2000/svg" xmlns:xlink="http://www.w3.org/1999/xlink" viewBox="0 0 96 90"><defs><style>.cls-1{fill:#231815;}.cls-2{fill:url(#未命名漸層_85);}</style><linearGradient id="未命名漸層_85" x1="10.5" y1="40.22" x2="90.99" y2="16.07" gradientUnits="userSpaceOnUse"><stop offset="0" stop-color="#dbedee"/><stop offset="0.29" stop-color="#9fcfdd"/><stop offset="0.34" stop-color="#72c7d7"/><stop offset="0.4" stop-color="#35bdce"/><stop offset="0.45" stop-color="#0fb6c9"/><stop offset="0.48" stop-color="#00b4c7"/><stop offset="0.58" stop-color="#00acc1"/><stop offset="0.73" stop-color="#0096af"/><stop offset="0.77" stop-color="#0090aa"/><stop offset="0.87" stop-color="#0488a5"/><stop offset="1" stop-color="#0c7598"/></linearGradient></defs><g id="圖層_2" data-name="圖層 2"><path class="cls-1" d="M2.17,81.78h5v1H5.69v4.79h-2V82.75H2.17Z"/><path class="cls-1" d="M11.93,83.3a1.24,1.24,0,0,1,.27,0,.92.92,0,0,1,.27.08,1.09,1.09,0,0,1,.17.13,1.39,1.39,0,0,1,.15.19s.05.11.07.17a.87.87,0,0,1,.05.19,2.71,2.71,0,0,1,0,.29v1.5H9.66v.46a.35.35,0,0,0,0,.13.31.31,0,0,0,.09.11.47.47,0,0,0,.12.09.28.28,0,0,0,.13,0h2.7v.83h-4l-.25,0a.88.88,0,0,1-.23-.07A.66.66,0,0,1,8,87.32a.61.61,0,0,1-.15-.17A.75.75,0,0,1,7.81,87c0-.06,0-.14-.06-.22s0-.11,0-.17,0-.13,0-.2v-1.9c0-.06,0-.12,0-.18s0-.12,0-.17a.92.92,0,0,1,.06-.25,1,1,0,0,1,.1-.21.65.65,0,0,1,.15-.18.78.78,0,0,1,.18-.11.83.83,0,0,1,.21-.06l.23,0ZM11,85.06v-.67a.31.31,0,0,0,0-.08l0-.09-.08-.06a.11.11,0,0,0-.08,0H9.88a.1.1,0,0,0-.07,0,.2.2,0,0,0-.07.06.22.22,0,0,0-.05.08.13.13,0,0,0,0,.08v.68Z"/><path class="cls-1" d="M17.72,83.32v.82H15.77a.24.24,0,0,0-.13,0,.28.28,0,0,0-.11.08l-.09.1a.27.27,0,0,0,0,.12v1.91a.19.19,0,0,0,0,.12.39.39,0,0,0,.08.1l.12.07a.32.32,0,0,0,.13,0h1.94v.84H14.59a1.42,1.42,0,0,1-.31,0,1.06,1.06,0,0,1-.25-.09,1.3,1.3,0,0,1-.2-.15.65.65,0,0,1-.15-.18.77.77,0,0,1-.1-.18,1.46,1.46,0,0,1-.07-.19,1.18,1.18,0,0,1,0-.2,1.5,1.5,0,0,1,0-.2V84.56a2.32,2.32,0,0,1,0-.24l.06-.23a1.6,1.6,0,0,1,.1-.23,1.1,1.1,0,0,1,.14-.21.8.8,0,0,1,.17-.15.56.56,0,0,1,.2-.12l.18,0h3.4Z"/><path class="cls-1" d="M18.3,87.53V81.77h1.95v1.54H22.4a1.09,1.09,0,0,1,.26,0,.72.72,0,0,1,.22.08,1.37,1.37,0,0,1,.2.13,1.21,1.21,0,0,1,.16.16l.12.19a.88.88,0,0,1,.09.2,2.86,2.86,0,0,1,.07.28,1.33,1.33,0,0,1,0,.28v2.88H21.61V84.36a.24.24,0,0,0,0-.08.18.18,0,0,0-.05-.07l-.08,0a.13.13,0,0,0-.08,0h-.94l-.07,0a.19.19,0,0,0-.06.07.36.36,0,0,0,0,.09.24.24,0,0,0,0,.08v3.13Z"/><path class="cls-1" d="M26.13,84.38v3.16h-2V83.32h4.1a1,1,0,0,1,.91.46,1.14,1.14,0,0,1,.1.19,1.55,1.55,0,0,1,.08.23,2,2,0,0,1,.05.26,2.48,2.48,0,0,1,0,.29v2.79H27.48V84.39a.2.2,0,0,0,0-.11l-.05-.07a.18.18,0,0,0-.09-.06h-1l-.08,0-.06.07A.36.36,0,0,0,26.13,84.38Z"/><path class="cls-1" d="M34.25,83.32h.22l.21,0a.56.56,0,0,1,.17.09.58.58,0,0,1,.15.13.68.68,0,0,1,.11.19.81.81,0,0,1,.09.25,1.11,1.11,0,0,1,0,.19,1.55,1.55,0,0,1,0,.22v2a1.69,1.69,0,0,1,0,.23,1.12,1.12,0,0,1,0,.21,1.8,1.8,0,0,1-.08.21.64.64,0,0,1-.11.16.49.49,0,0,1-.13.12.65.65,0,0,1-.16.09l-.22,0-.23,0H31l-.25,0-.24-.08-.17-.12a.93.93,0,0,1-.14-.14,1,1,0,0,1-.1-.18,1,1,0,0,1-.07-.22.52.52,0,0,1,0-.14.81.81,0,0,1,0-.16v-2a1.48,1.48,0,0,1,0-.21,1.1,1.1,0,0,1,0-.18,1.47,1.47,0,0,1,.08-.25.68.68,0,0,1,.11-.19,1.07,1.07,0,0,1,.16-.14.7.7,0,0,1,.17-.09l.2,0h3.55Zm-1.17.83H32s0,0-.05,0a.12.12,0,0,0,0,0,.19.19,0,0,0,0,.07.17.17,0,0,0,0,.07v2.08a.29.29,0,0,0,0,.09l.06.08.08.06a.12.12,0,0,0,.08,0h.92a.15.15,0,0,0,.09,0l.08-.06.06-.07a.29.29,0,0,0,0-.09V84.38a.19.19,0,0,0,0-.08l-.06-.08-.07,0Z"/><path class="cls-1" d="M37.91,81.78v5.76H36V81.78Z"/><path class="cls-1" d="M42.58,83.32h.22l.21,0a.56.56,0,0,1,.17.09.58.58,0,0,1,.15.13.68.68,0,0,1,.11.19.81.81,0,0,1,.09.25,1.11,1.11,0,0,1,0,.19,1.55,1.55,0,0,1,0,.22v2a1.69,1.69,0,0,1,0,.23,1.12,1.12,0,0,1,0,.21,1.8,1.8,0,0,1-.08.21.64.64,0,0,1-.11.16.49.49,0,0,1-.13.12.51.51,0,0,1-.16.09l-.22,0-.23,0h-3.3l-.25,0-.24-.08-.17-.12a.93.93,0,0,1-.14-.14,1,1,0,0,1-.1-.18,1,1,0,0,1-.07-.22.52.52,0,0,1,0-.14.81.81,0,0,1,0-.16v-2a1.48,1.48,0,0,1,0-.21,1.1,1.1,0,0,1,0-.18,1.47,1.47,0,0,1,.08-.25.68.68,0,0,1,.11-.19,1.07,1.07,0,0,1,.16-.14.7.7,0,0,1,.17-.09l.2,0h3.55Zm-1.17.83H40.35s0,0-.05,0,0,0,0,0,0,0,0,.07a.17.17,0,0,0,0,.07v2.08a.16.16,0,0,0,0,.09.35.35,0,0,0,0,.08l.08.06a.13.13,0,0,0,.08,0h.93a.13.13,0,0,0,.08,0,.24.24,0,0,0,.08-.06l.06-.07a.29.29,0,0,0,0-.09V84.38a.19.19,0,0,0,0-.08l-.06-.08-.07,0Z"/><path class="cls-1" d="M49.3,88a1.64,1.64,0,0,1,0,.22.66.66,0,0,1-.06.2.84.84,0,0,1-.08.19l-.12.17a.67.67,0,0,1-.14.15l-.14.11a.88.88,0,0,1-.2.09.51.51,0,0,1-.2,0H44.42v-.82H47a.34.34,0,0,0,.18,0,.35.35,0,0,0,.12-.1.47.47,0,0,0,.07-.12.77.77,0,0,0,0-.15v-.37H45.17a1,1,0,0,1-.25,0l-.21-.07a.81.81,0,0,1-.18-.12.67.67,0,0,1-.15-.14.91.91,0,0,1-.11-.16,1.42,1.42,0,0,1-.08-.18,1.36,1.36,0,0,1-.07-.25,1.94,1.94,0,0,1,0-.24V84.47a.71.71,0,0,1,0-.2,1.55,1.55,0,0,1,0-.21.88.88,0,0,1,.09-.2,1.74,1.74,0,0,1,.11-.18,1.33,1.33,0,0,1,.16-.17.86.86,0,0,1,.2-.13.68.68,0,0,1,.2-.07.85.85,0,0,1,.23,0H49.3Zm-2.16-3.82h-1s0,0-.06,0l-.05.06a.24.24,0,0,0,0,.08.25.25,0,0,0,0,.08v2.08a.29.29,0,0,0,0,.09.22.22,0,0,0,0,.08l.08.06.08,0h.89a.1.1,0,0,0,.07,0,.1.1,0,0,0,.06,0l.05-.07a.31.31,0,0,0,0-.08v-2.1a.29.29,0,0,0,0-.09l-.06-.08-.07-.06A.12.12,0,0,0,47.14,84.14Z"/><path class="cls-1" d="M51.88,83.3v3.15a.25.25,0,0,0,0,.08.22.22,0,0,0,0,.08.27.27,0,0,0,.08.07.15.15,0,0,0,.09,0H53a.11.11,0,0,0,.08,0,.1.1,0,0,0,0-.06.16.16,0,0,0,0-.07.25.25,0,0,0,0-.08V83.33h1.93v4.8a.88.88,0,0,1,0,.16,1.16,1.16,0,0,1,0,.18c0,.06-.05.12-.07.17l-.11.15a.74.74,0,0,1-.12.13l-.16.11-.19.07-.22,0h-4V88.3h2.69a.23.23,0,0,0,.12,0l.1,0,0-.07a.29.29,0,0,0,0-.09v-.53H51.07a1.27,1.27,0,0,1-.28,0,1.22,1.22,0,0,1-.24-.1,1,1,0,0,1-.2-.15,1.63,1.63,0,0,1-.17-.2,1.08,1.08,0,0,1-.11-.18c0-.06,0-.13-.07-.2a1.42,1.42,0,0,1,0-.22,1.64,1.64,0,0,1,0-.23V83.3Z"/><path class="cls-1" d="M60,81.78h2V86.6h2.38v.93H60Z"/><path class="cls-1" d="M67,83.29v4.25H65.1V83.29Zm-1.92-1.51H67v1.1h-1.9Z"/><path class="cls-1" d="M67.49,83.31h1.77v.3a.83.83,0,0,1,.08-.12.76.76,0,0,1,.09-.09l.11-.07.12,0h1.89a.6.6,0,0,1,.24,0,.48.48,0,0,1,.16.12.44.44,0,0,1,.09.11.41.41,0,0,1,.06.11l0,.07h0c0-.06,0-.11,0-.16a.91.91,0,0,1,.07-.14.26.26,0,0,1,.11-.12.25.25,0,0,1,.15,0H74a1,1,0,0,1,.3,0,.64.64,0,0,1,.24.1.65.65,0,0,1,.18.15,1.33,1.33,0,0,1,.14.19A1.08,1.08,0,0,1,75,84a1.6,1.6,0,0,1,0,.21,2.51,2.51,0,0,1,0,.27,2.09,2.09,0,0,1,0,.25v2.83H73.31V84.37a.3.3,0,0,0,0-.1l-.05-.07-.06,0-.08,0h-.74l-.07,0-.06,0a.43.43,0,0,0,0,.07.2.2,0,0,0,0,.07v3.18H70.39V84.38a.25.25,0,0,0,0-.08.34.34,0,0,0,0-.08l-.08-.07-.11,0h-.71a.11.11,0,0,0-.07,0,.12.12,0,0,0-.06.06.36.36,0,0,0,0,.09.31.31,0,0,0,0,.08v3.15H67.49Z"/><path class="cls-1" d="M77.88,83.29v4.25H76V83.29ZM76,81.78h1.91v1.1H76Z"/><path class="cls-1" d="M80.74,82.39v.92h1.55v.82H80.74v2.36a.21.21,0,0,0,.05.15.13.13,0,0,0,.07,0,.22.22,0,0,0,.12,0h1.41v.82H79.83a1.42,1.42,0,0,1-.31,0,1,1,0,0,1-.26-.11.79.79,0,0,1-.15-.12L79,87.14a1.14,1.14,0,0,1-.1-.19,1.18,1.18,0,0,1-.07-.2.77.77,0,0,1,0-.15.86.86,0,0,1,0-.16V84.13H78v-.82h.81v-.92Z"/><path class="cls-1" d="M87.08,83.3a1.24,1.24,0,0,1,.27,0,.84.84,0,0,1,.27.08l.18.13a1.33,1.33,0,0,1,.14.19,1.43,1.43,0,0,1,.12.36,2.64,2.64,0,0,1,0,.29v1.5H84.81v.46a.35.35,0,0,0,0,.13.31.31,0,0,0,.09.11.47.47,0,0,0,.12.09.31.31,0,0,0,.13,0h2.7v.83h-4l-.26,0a.88.88,0,0,1-.23-.07.66.66,0,0,1-.17-.12.83.83,0,0,1-.15-.17A1.59,1.59,0,0,1,83,87a1.19,1.19,0,0,1,0-.22l0-.17V84.3c0-.06,0-.12,0-.17s0-.18.06-.25a1,1,0,0,1,.1-.21.65.65,0,0,1,.15-.18.86.86,0,0,1,.19-.11.65.65,0,0,1,.21-.06l.22,0Zm-.89,1.76v-.67a.31.31,0,0,0,0-.08.41.41,0,0,0,0-.09l-.07-.06a.13.13,0,0,0-.08,0H85a.1.1,0,0,0-.07,0,.2.2,0,0,0-.07.06.22.22,0,0,0,0,.08.13.13,0,0,0,0,.08v.68Z"/><path class="cls-1" d="M93.83,81.78v5.76H89.46l-.14,0-.06,0,0,0L89,87.31a.54.54,0,0,1-.15-.15,1,1,0,0,1-.11-.17.84.84,0,0,1-.08-.2,1.46,1.46,0,0,1,0-.2,1.36,1.36,0,0,1,0-.2V84.51a2.45,2.45,0,0,1,0-.27q0-.13.06-.24a.93.93,0,0,1,.1-.2l.12-.17.17-.14.2-.1.22-.08.13,0h2.23V81.78Zm-2.17,2.36h-.87l-.08,0-.08.07a.41.41,0,0,0,0,.09.16.16,0,0,0,0,.1v2a.13.13,0,0,0,0,.08.12.12,0,0,0,.06.08.23.23,0,0,0,.07.07l.1,0h.85l.08,0a.19.19,0,0,0,.07-.06.22.22,0,0,0,0-.08.51.51,0,0,0,0-.09v-2a.29.29,0,0,0,0-.09.41.41,0,0,0,0-.09l-.07-.06A.13.13,0,0,0,91.66,84.14Z"/><path class="cls-1" d="M17.35,57.84V61H9.94a.75.75,0,0,0-.34.09,1.19,1.19,0,0,0-.31.23,1.06,1.06,0,0,0-.24.34A.73.73,0,0,0,9,62V73.11a.75.75,0,0,0,.09.34,1,1,0,0,0,.26.31,1.59,1.59,0,0,0,.35.22,1,1,0,0,0,.38.08h7.57v3.22H6.21a4,4,0,0,1-.91-.1,4.23,4.23,0,0,1-.85-.28,4.19,4.19,0,0,1-.7-.45,3.16,3.16,0,0,1-.6-.61,6.53,6.53,0,0,1-.42-.67,3.58,3.58,0,0,1-.31-.81,6.83,6.83,0,0,1-.17-.81,5.45,5.45,0,0,1-.07-.92v-10a5.45,5.45,0,0,1,.07-.92,7.34,7.34,0,0,1,.17-.84A7.42,7.42,0,0,1,2.79,60a4.28,4.28,0,0,1,.44-.73,6.64,6.64,0,0,1,.5-.54,3.09,3.09,0,0,1,.56-.41,3,3,0,0,1,.8-.36A3.17,3.17,0,0,1,6,57.84Z"/><path class="cls-1" d="M26.54,63V77.28H20V63Zm-6.46-5.08h6.41v3.7H20.08Z"/><path class="cls-1" d="M35,77.28H28.44V63H35V64.3a1.71,1.71,0,0,1,.36-.41,1,1,0,0,1,.2-.2l.23-.15.32-.2a1.61,1.61,0,0,1,.33-.15l.36-.1a2.09,2.09,0,0,1,.34,0h3.92v4H37.63a4.06,4.06,0,0,0-1,.11,2.76,2.76,0,0,0-.78.3,1.08,1.08,0,0,0-.33.2,1.61,1.61,0,0,0-.24.28,1,1,0,0,0-.23.37,1.52,1.52,0,0,0-.07.45Z"/><path class="cls-1" d="M49.88,77.28h-6.6V63h6.6V64.3a1.91,1.91,0,0,1,.35-.41,1,1,0,0,1,.2-.2l.23-.15.33-.2a1.54,1.54,0,0,1,.32-.15l.37-.1a2,2,0,0,1,.34,0h3.92v4H52.48a4,4,0,0,0-.95.11,2.71,2.71,0,0,0-.79.3,1.16,1.16,0,0,0-.32.2,1.61,1.61,0,0,0-.24.28.85.85,0,0,0-.23.37,1.25,1.25,0,0,0-.07.45Z"/><path class="cls-1" d="M64.35,63V73.71a.52.52,0,0,0,.08.28.83.83,0,0,0,.19.26,1.17,1.17,0,0,0,.28.17.61.61,0,0,0,.28.07h2.95a1,1,0,0,0,.29,0,.82.82,0,0,0,.25-.16,1.92,1.92,0,0,0,.19-.23.44.44,0,0,0,.08-.26V63h6.57V77.28H61.7a3.46,3.46,0,0,1-.87-.1,4.51,4.51,0,0,1-.76-.25,4.18,4.18,0,0,1-.65-.45,7,7,0,0,1-.54-.55,4.09,4.09,0,0,1-.44-.67,4.46,4.46,0,0,1-.34-.74c-.07-.25-.13-.51-.18-.77a5.09,5.09,0,0,1-.06-.77V63Z"/><path class="cls-1" d="M93,63.05v2.63H84.33a.58.58,0,0,0-.2,0,1.57,1.57,0,0,0-.23.09.51.51,0,0,0-.18.14.29.29,0,0,0-.07.19v.78a.25.25,0,0,0,.08.18l.19.12.23.08.23,0h6.41a3.2,3.2,0,0,1,.61,0,4.48,4.48,0,0,1,.58.14,2.89,2.89,0,0,1,.56.27,2.4,2.4,0,0,1,.47.37,2.46,2.46,0,0,1,.34.44,3.73,3.73,0,0,1,.42,1.16,5.94,5.94,0,0,1,0,.76v3.32a3.41,3.41,0,0,1-.07.73,3.13,3.13,0,0,1-.2.68,2,2,0,0,1-.3.55c-.12.17-.25.33-.38.48a4.91,4.91,0,0,1-.51.39,5,5,0,0,1-.54.31,3.58,3.58,0,0,1-.77.23,5.12,5.12,0,0,1-.77.07H77.73V74.71H87a.49.49,0,0,0,.23-.06.74.74,0,0,0,.21-.13.41.41,0,0,0,.16-.16.63.63,0,0,0,.05-.22v-.78a.5.5,0,0,0-.05-.21.46.46,0,0,0-.16-.15l-.22-.12a.78.78,0,0,0-.22,0H80.62a5.19,5.19,0,0,1-.77-.06,4.5,4.5,0,0,1-.77-.23,3.24,3.24,0,0,1-.47-.28,1.71,1.71,0,0,1-.39-.37,3.13,3.13,0,0,1-.29-.42,4,4,0,0,1-.2-.48c0-.14-.06-.29-.08-.46a4.12,4.12,0,0,1,0-.51V66.24a2.82,2.82,0,0,1,.08-.68,4.44,4.44,0,0,1,.22-.61c.11-.18.23-.35.35-.52A2.91,2.91,0,0,1,78.7,64a3.94,3.94,0,0,1,.53-.38,3.77,3.77,0,0,1,.58-.27,5.41,5.41,0,0,1,.79-.21,3.59,3.59,0,0,1,.78-.09Z"/><path class="cls-2" d="M77.56,18.18c0-.1,0-.21,0-.31A12.35,12.35,0,0,0,65.23,5.52a12.23,12.23,0,0,0-7.52,2.57,21.72,21.72,0,0,0-37.8,12.54h.35A17.47,17.47,0,0,1,35.4,29.37l-3.71,2.14h0a12.83,12.83,0,0,0-1-1.46h0l-.16-.19a13.69,13.69,0,0,0-1.62-1.7h0l-.28-.23a14,14,0,0,0-1.86-1.29h0l-.43-.24h0c-.25-.13-.51-.26-.78-.37h0a12.32,12.32,0,0,0-1.2-.45h0L24,25.45h0c-.35-.11-.71-.2-1.07-.28h0l-.09,0h0c-.35-.07-.72-.12-1.08-.16h0l-.31,0h0c-.4,0-.8-.07-1.2-.07a13.71,13.71,0,0,0-2.66.27,13.22,13.22,0,0,0,0,25.89,13,13,0,0,0,2.66.27c.4,0,.8,0,1.2-.06l.3,0h0c.36,0,.73-.1,1.09-.17L23,51l.29-.07.23-.06.55-.14.35-.11.32-.12.24-.09.28-.1.36-.15.57-.28.13-.06a.2.2,0,0,0,.08,0c.15-.07.29-.15.43-.23l.53-.32.12-.09.3-.2.3-.2.4-.3.27-.23.12-.1.11-.09.25-.23.34-.34L30,47l.12-.12.09-.1.49-.6.1-.14h0c.31-.42.6-.86.87-1.31h0l3.71,2.14a17.72,17.72,0,0,1-3.7,4.47H74.35a16.72,16.72,0,0,0,3.21-33.14Z"/></g></svg>