<svg xmlns="http://www.w3.org/2000/svg" xmlns:xlink="http://www.w3.org/1999/xlink" viewBox="0 0 240 80"><defs><style>.cls-1{fill:#fff;}.cls-2{fill:url(#未命名漸層_34);}</style><linearGradient id="未命名漸層_34" x1="3.46" y1="55.52" x2="83.94" y2="31.38" gradientUnits="userSpaceOnUse"><stop offset="0" stop-color="#dbedee"/><stop offset="0.23" stop-color="#9ccedd"/><stop offset="0.29" stop-color="#72c7d7"/><stop offset="0.39" stop-color="#35bdce"/><stop offset="0.47" stop-color="#0fb6c9"/><stop offset="0.51" stop-color="#00b4c7"/><stop offset="0.6" stop-color="#00acc1"/><stop offset="0.74" stop-color="#0096af"/><stop offset="0.77" stop-color="#0090aa"/><stop offset="0.87" stop-color="#0488a5"/><stop offset="1" stop-color="#0c7598"/></linearGradient></defs><g id="圖層_2" data-name="圖層 2"><path class="cls-1" d="M92.23,54.77h8.11v1.57H97.91v7.72H94.68V56.34H92.23Z"/><path class="cls-1" d="M108,57.23a3.13,3.13,0,0,1,.44,0,1.66,1.66,0,0,1,.43.14,1.19,1.19,0,0,1,.29.21,2.37,2.37,0,0,1,.23.3q.06.12.12.27a1.41,1.41,0,0,1,.07.31,3.48,3.48,0,0,1,0,.47v2.42H104.3v.73a.63.63,0,0,0,0,.22.65.65,0,0,0,.15.18.9.9,0,0,0,.19.15.54.54,0,0,0,.21,0h4.36v1.33h-6.51a2.83,2.83,0,0,1-.41,0,1.23,1.23,0,0,1-.37-.12,1.67,1.67,0,0,1-.28-.18,1.34,1.34,0,0,1-.23-.29.8.8,0,0,1-.13-.28,1.79,1.79,0,0,1-.09-.35,2.36,2.36,0,0,1,0-.28c0-.1,0-.21,0-.32V59.13a2.64,2.64,0,0,1,0-.29c0-.1,0-.19,0-.27a2.22,2.22,0,0,1,.11-.41,1.26,1.26,0,0,1,.15-.33,1.37,1.37,0,0,1,.24-.29,1.05,1.05,0,0,1,.31-.18l.33-.1.36,0Zm-1.43,2.84V59a.31.31,0,0,0,0-.13.67.67,0,0,0-.09-.14.35.35,0,0,0-.11-.1.24.24,0,0,0-.13,0h-1.5a.2.2,0,0,0-.13,0,.44.44,0,0,0-.11.09l-.08.13a.39.39,0,0,0,0,.14v1.09Z"/><path class="cls-1" d="M117.29,57.26v1.33h-3.13a.46.46,0,0,0-.2,0l-.19.13a.62.62,0,0,0-.14.18.41.41,0,0,0,0,.18v3.08a.35.35,0,0,0,.06.19.53.53,0,0,0,.13.16.71.71,0,0,0,.2.12.52.52,0,0,0,.21,0h3.11v1.34h-5a1.85,1.85,0,0,1-.49,0,1.57,1.57,0,0,1-.4-.14,2.62,2.62,0,0,1-.32-.23,1.18,1.18,0,0,1-.25-.3,2.61,2.61,0,0,1-.17-.28c0-.11-.08-.21-.11-.32l-.06-.32a1.82,1.82,0,0,1,0-.32V59.26a1.76,1.76,0,0,1,0-.38,2.34,2.34,0,0,1,.09-.38c0-.13.1-.25.16-.37a1.69,1.69,0,0,1,.23-.34,1.48,1.48,0,0,1,.26-.24,1.42,1.42,0,0,1,.32-.19l.29-.08.33,0Z"/><path class="cls-1" d="M118.24,64.05V54.76h3.14v2.49h3.46a2,2,0,0,1,.43,0,1.58,1.58,0,0,1,.36.14,3.28,3.28,0,0,1,.31.2,1.56,1.56,0,0,1,.45.57,1.22,1.22,0,0,1,.14.33,3.19,3.19,0,0,1,.13.44,2.28,2.28,0,0,1,0,.45v4.64h-3.13V58.94a.31.31,0,0,0,0-.13.47.47,0,0,0-.09-.12.57.57,0,0,0-.13-.08.28.28,0,0,0-.13,0h-1.5a.19.19,0,0,0-.12,0,.52.52,0,0,0-.1.11l-.06.14a.35.35,0,0,0,0,.14v5Z"/><path class="cls-1" d="M130.85,59v5.08H127.7v-6.8h6.61a1.72,1.72,0,0,1,.88.22,1.55,1.55,0,0,1,.58.53,1.69,1.69,0,0,1,.17.3,2.32,2.32,0,0,1,.13.37c0,.13.06.27.08.42s0,.3,0,.46v4.5H133V59a.4.4,0,0,0,0-.17.57.57,0,0,0-.08-.13.6.6,0,0,0-.15-.09l-.17,0h-1.35l-.15,0a.57.57,0,0,0-.13.08l-.09.12A.48.48,0,0,0,130.85,59Z"/><path class="cls-1" d="M144,57.26l.36,0,.33.08a1.15,1.15,0,0,1,.27.14.79.79,0,0,1,.24.21,1.82,1.82,0,0,1,.19.31,1.87,1.87,0,0,1,.14.4c0,.1,0,.2,0,.31s0,.22,0,.35V62.3c0,.14,0,.27,0,.39a1.91,1.91,0,0,1-.06.33,1.62,1.62,0,0,1-.13.33.86.86,0,0,1-.18.26.8.8,0,0,1-.21.2,1.65,1.65,0,0,1-.26.14,2,2,0,0,1-.35.09,2.36,2.36,0,0,1-.37,0h-5.32a2.83,2.83,0,0,1-.41,0,1.71,1.71,0,0,1-.38-.13l-.27-.18a1.31,1.31,0,0,1-.23-.24,1.28,1.28,0,0,1-.16-.28,1.3,1.3,0,0,1-.11-.35,1.57,1.57,0,0,1,0-.23,2.11,2.11,0,0,1,0-.26V59.07c0-.12,0-.23,0-.34a2.54,2.54,0,0,1,0-.29,1.79,1.79,0,0,1,.13-.41.9.9,0,0,1,.18-.29.94.94,0,0,1,.25-.24,1.47,1.47,0,0,1,.28-.14l.31-.08.32,0Zm-1.89,1.34h-1.71l-.08,0a.28.28,0,0,0-.07.09.49.49,0,0,0,0,.11.45.45,0,0,0,0,.11V62.3a.33.33,0,0,0,0,.15l.09.13.13.1a.24.24,0,0,0,.13,0H142a.27.27,0,0,0,.14,0l.12-.09a.53.53,0,0,0,.1-.12.39.39,0,0,0,0-.14V59a.28.28,0,0,0,0-.13.27.27,0,0,0-.09-.12l-.11-.08A.21.21,0,0,0,142.06,58.6Z"/><path class="cls-1" d="M149.85,54.79v9.27h-3.16V54.79Z"/><path class="cls-1" d="M157.38,57.26l.36,0,.33.08a1.15,1.15,0,0,1,.27.14.79.79,0,0,1,.24.21,1.35,1.35,0,0,1,.19.31,1.87,1.87,0,0,1,.14.4,2.91,2.91,0,0,1,0,.31c0,.1,0,.22,0,.35V62.3c0,.14,0,.27,0,.39a1.91,1.91,0,0,1-.06.33,1.62,1.62,0,0,1-.13.33.86.86,0,0,1-.18.26.8.8,0,0,1-.21.2,1.57,1.57,0,0,1-.25.14l-.36.09a2.36,2.36,0,0,1-.37,0h-5.32a2.6,2.6,0,0,1-.4,0,1.63,1.63,0,0,1-.39-.13l-.27-.18a1.75,1.75,0,0,1-.23-.24,1.28,1.28,0,0,1-.16-.28,1.3,1.3,0,0,1-.11-.35,1.57,1.57,0,0,1,0-.23,2.17,2.17,0,0,1,0-.26V59.07c0-.12,0-.23,0-.34a2.54,2.54,0,0,1,0-.29,1.79,1.79,0,0,1,.13-.41.9.9,0,0,1,.18-.29,1.12,1.12,0,0,1,.25-.24,1.47,1.47,0,0,1,.28-.14l.32-.08.31,0Zm-1.89,1.34h-1.71a.2.2,0,0,0-.08,0l-.07.09a.49.49,0,0,0,0,.11.45.45,0,0,0,0,.11V62.3a.24.24,0,0,0,0,.15.38.38,0,0,0,.09.13.4.4,0,0,0,.12.1.24.24,0,0,0,.13,0h1.49a.25.25,0,0,0,.14,0l.12-.09a.53.53,0,0,0,.1-.12.39.39,0,0,0,0-.14V59a.28.28,0,0,0,0-.13.27.27,0,0,0-.09-.12l-.11-.08A.19.19,0,0,0,155.49,58.6Z"/><path class="cls-1" d="M168.21,64.74a2,2,0,0,1,0,.35,1.15,1.15,0,0,1-.1.33,1.26,1.26,0,0,1-.13.31,2.75,2.75,0,0,1-.19.28,2.39,2.39,0,0,1-.22.23l-.23.18a2.41,2.41,0,0,1-.33.15,1,1,0,0,1-.32.06h-6.32V65.31h4.14a.62.62,0,0,0,.29-.06.49.49,0,0,0,.19-.16.55.55,0,0,0,.12-.21.66.66,0,0,0,0-.23v-.6h-3.56a1.78,1.78,0,0,1-.41,0,1.26,1.26,0,0,1-.34-.13,1.75,1.75,0,0,1-.29-.18,1.31,1.31,0,0,1-.24-.23,1.2,1.2,0,0,1-.18-.26,1.36,1.36,0,0,1-.13-.3,1.9,1.9,0,0,1-.11-.39,2.8,2.8,0,0,1,0-.4v-3c0-.1,0-.21,0-.32s.05-.23.08-.34a1.3,1.3,0,0,1,.14-.32,1.83,1.83,0,0,1,.18-.3,2.33,2.33,0,0,1,.26-.28,1.49,1.49,0,0,1,.31-.2l.33-.12a1.5,1.5,0,0,1,.37-.05h6.69Zm-3.48-6.16h-1.54a.14.14,0,0,0-.1,0,.26.26,0,0,0-.07.1l0,.12s0,.09,0,.13v3.36a.39.39,0,0,0,0,.14.51.51,0,0,0,.09.13.27.27,0,0,0,.12.09.25.25,0,0,0,.14,0h1.42l.12,0a.39.39,0,0,0,.1-.08.83.83,0,0,0,.08-.12.59.59,0,0,0,0-.13V59a.4.4,0,0,0,0-.15.5.5,0,0,0-.08-.12.53.53,0,0,0-.12-.1A.22.22,0,0,0,164.73,58.58Z"/><path class="cls-1" d="M172.36,57.23V62.3a.35.35,0,0,0,0,.14.25.25,0,0,0,.08.12.3.3,0,0,0,.13.12.27.27,0,0,0,.14,0h1.41l.12,0,.09-.1.06-.12a.69.69,0,0,0,0-.13V57.27h3.1V65a1.24,1.24,0,0,1,0,.27,1.5,1.5,0,0,1-.06.29c0,.09-.08.18-.12.27a2,2,0,0,1-.16.24,1.45,1.45,0,0,1-.21.22l-.26.17a1.76,1.76,0,0,1-.3.1,1.37,1.37,0,0,1-.36,0h-6.42V65.29H174a.58.58,0,0,0,.19,0l.16-.08.08-.12a.33.33,0,0,0,0-.14v-.86h-3.38a1.56,1.56,0,0,1-.44,0,1.32,1.32,0,0,1-.39-.15,1.59,1.59,0,0,1-.33-.25,2.21,2.21,0,0,1-.28-.32,2,2,0,0,1-.16-.29,1.75,1.75,0,0,1-.12-.32,2,2,0,0,1-.08-.35,2.31,2.31,0,0,1,0-.37V57.23Z"/><path class="cls-1" d="M185.41,54.79h3.27v7.76h3.84v1.5h-7.11Z"/><path class="cls-1" d="M196.79,57.22v6.84h-3.11V57.22Zm-3.09-2.43h3.07v1.77H193.7Z"/><path class="cls-1" d="M197.53,57.25h2.86v.49l.12-.2.15-.15a.87.87,0,0,1,.18-.11.69.69,0,0,1,.2,0h3a.89.89,0,0,1,.38.07.79.79,0,0,1,.27.2,1.19,1.19,0,0,1,.15.18l.09.18a.36.36,0,0,1,0,.11s0,0,0,0,0-.17.07-.26a1.13,1.13,0,0,1,.11-.22.55.55,0,0,1,.17-.2.48.48,0,0,1,.24-.07h2.5a1.88,1.88,0,0,1,.49.06,1.45,1.45,0,0,1,.38.16,1.42,1.42,0,0,1,.3.25,1.73,1.73,0,0,1,.22.31,2.08,2.08,0,0,1,.13.3l.09.33c0,.15,0,.29.05.44a2.75,2.75,0,0,1,0,.4v4.57h-2.86V59a.33.33,0,0,0,0-.15.47.47,0,0,0-.07-.12.39.39,0,0,0-.11-.06l-.12,0h-1.19a.21.21,0,0,0-.12,0l-.09.07a.75.75,0,0,0-.07.12.5.5,0,0,0,0,.12v5.12h-2.87V59a.78.78,0,0,0,0-.14.81.81,0,0,0-.06-.13.6.6,0,0,0-.12-.11.48.48,0,0,0-.18,0H200.7a.19.19,0,0,0-.12,0,.52.52,0,0,0-.1.11l-.06.14a.31.31,0,0,0,0,.13v5.07h-2.86Z"/><path class="cls-1" d="M214.29,57.22v6.84h-3.12V57.22Zm-3.09-2.43h3.06v1.77H211.2Z"/><path class="cls-1" d="M218.9,55.77v1.48h2.49v1.32H218.9v3.8a.3.3,0,0,0,0,.13.61.61,0,0,0,.05.12.36.36,0,0,0,.12.08.54.54,0,0,0,.19,0h2.28v1.32h-4.14a2,2,0,0,1-.5-.06,1.84,1.84,0,0,1-.41-.16,2.11,2.11,0,0,1-.23-.19,2.18,2.18,0,0,1-.21-.22c-.06-.1-.11-.2-.16-.3a3,3,0,0,1-.11-.32c0-.09,0-.17,0-.26s0-.16,0-.25V58.57h-1.34V57.25h1.32V55.77Z"/><path class="cls-1" d="M229.12,57.23a3.42,3.42,0,0,1,.44,0,1.6,1.6,0,0,1,.42.14,1.19,1.19,0,0,1,.29.21,1.43,1.43,0,0,1,.35.57,2.33,2.33,0,0,1,.08.31c0,.15,0,.3,0,.47v2.42h-5.26v.73a.47.47,0,0,0,0,.22.49.49,0,0,0,.14.18,1.25,1.25,0,0,0,.19.15.54.54,0,0,0,.21,0h4.36v1.33H223.9a2.69,2.69,0,0,1-.4,0,1.07,1.07,0,0,1-.37-.12,1.41,1.41,0,0,1-.29-.18,1.73,1.73,0,0,1-.23-.29,1,1,0,0,1-.13-.28c0-.11-.06-.22-.09-.35a2.36,2.36,0,0,1,0-.28c0-.1,0-.21,0-.32V59.13a2.71,2.71,0,0,1,0-.29l0-.27a2.24,2.24,0,0,1,.1-.41,1,1,0,0,1,.16-.33,1.09,1.09,0,0,1,.23-.29,1.39,1.39,0,0,1,.31-.18,2.31,2.31,0,0,1,.34-.1l.36,0Zm-1.44,2.84V59a.31.31,0,0,0,0-.13.64.64,0,0,0-.08-.14.53.53,0,0,0-.12-.1.22.22,0,0,0-.13,0h-1.5a.17.17,0,0,0-.12,0,.31.31,0,0,0-.11.09.51.51,0,0,0-.09.13.39.39,0,0,0,0,.14v1.09Z"/><path class="cls-1" d="M240,54.79v9.27h-6.63a2.43,2.43,0,0,1-.42,0,.9.9,0,0,1-.22-.05l-.11-.05a.07.07,0,0,0-.05,0,2,2,0,0,1-.31-.2,2.72,2.72,0,0,1-.24-.24,1.41,1.41,0,0,1-.18-.29,1.37,1.37,0,0,1-.13-.31,2,2,0,0,1-.08-.33,1.73,1.73,0,0,1,0-.32v-3a2.94,2.94,0,0,1,0-.44,3.69,3.69,0,0,1,.1-.39,1.68,1.68,0,0,1,.16-.33l.19-.27a1.93,1.93,0,0,1,.28-.22,1.62,1.62,0,0,1,.32-.17,2.08,2.08,0,0,1,.35-.12l.21,0h.1l0,0h3.47V54.79Zm-3.51,3.79H235.1a.25.25,0,0,0-.14,0,.43.43,0,0,0-.12.11.46.46,0,0,0-.09.15.4.4,0,0,0,0,.15v3.29a.39.39,0,0,0,0,.14.41.41,0,0,0,.1.13.38.38,0,0,0,.12.1.28.28,0,0,0,.15,0h1.37a.2.2,0,0,0,.13,0,1.27,1.27,0,0,0,.12-.1.64.64,0,0,0,.08-.14.42.42,0,0,0,0-.15V59a.42.42,0,0,0,0-.15.64.64,0,0,0-.08-.14.38.38,0,0,0-.12-.1A.2.2,0,0,0,236.49,58.58Z"/><path class="cls-1" d="M116.7,16.18v5.14H104.76a1.17,1.17,0,0,0-.55.15,2.64,2.64,0,0,0-.5.38,1.94,1.94,0,0,0-.39.54,1.26,1.26,0,0,0-.13.55V40.81a1.16,1.16,0,0,0,.15.54,1.54,1.54,0,0,0,.42.5,2,2,0,0,0,.56.35,1.52,1.52,0,0,0,.61.13h12.21v5.19H98.74a7.16,7.16,0,0,1-1.46-.15,6.49,6.49,0,0,1-1.37-.46,6,6,0,0,1-1.13-.72,5.26,5.26,0,0,1-1-1,9.8,9.8,0,0,1-.68-1.09,5.73,5.73,0,0,1-.5-1.31,9.59,9.59,0,0,1-.28-1.3A8.85,8.85,0,0,1,92.25,40V23.89a8.81,8.81,0,0,1,.11-1.48,12,12,0,0,1,.28-1.35,11,11,0,0,1,.59-1.39A7.87,7.87,0,0,1,94,18.49a9.71,9.71,0,0,1,.8-.87,4.73,4.73,0,0,1,.9-.66,5.29,5.29,0,0,1,1.28-.59,5.12,5.12,0,0,1,1.42-.19Z"/><path class="cls-1" d="M131.52,24.46V47.52H121V24.46Zm-10.41-8.19h10.33v6H121.11Z"/><path class="cls-1" d="M145.21,47.52H134.58v-23h10.63V26.6a3.18,3.18,0,0,1,.57-.66,2,2,0,0,1,.33-.32,1.45,1.45,0,0,1,.37-.24c.17-.12.35-.23.52-.33a3,3,0,0,1,.52-.24l.59-.15a2.13,2.13,0,0,1,.55-.07H155V31H149.4a6.18,6.18,0,0,0-1.53.17,4.87,4.87,0,0,0-1.26.48,2,2,0,0,0-.53.33,2.87,2.87,0,0,0-.39.45,1.62,1.62,0,0,0-.37.59,2.36,2.36,0,0,0-.11.72Z"/><path class="cls-1" d="M169.14,47.52H158.51v-23h10.63V26.6a3.18,3.18,0,0,1,.57-.66,2,2,0,0,1,.33-.32,1.45,1.45,0,0,1,.37-.24c.17-.12.35-.23.52-.33a3.1,3.1,0,0,1,.53-.24l.58-.15a2.13,2.13,0,0,1,.55-.07h6.32V31h-5.58a6.18,6.18,0,0,0-1.53.17,4.87,4.87,0,0,0-1.26.48,1.93,1.93,0,0,0-.52.33,2.47,2.47,0,0,0-.4.45,1.77,1.77,0,0,0-.37.59,2.36,2.36,0,0,0-.11.72Z"/><path class="cls-1" d="M192.47,24.5V41.77a.91.91,0,0,0,.13.45,1.87,1.87,0,0,0,.3.42,2,2,0,0,0,.46.28,1.14,1.14,0,0,0,.46.11h4.75a1.34,1.34,0,0,0,.46-.09.93.93,0,0,0,.41-.26,2.17,2.17,0,0,0,.31-.37.79.79,0,0,0,.13-.41V24.55h10.59v23H188.19a6.23,6.23,0,0,1-1.39-.15,4.88,4.88,0,0,1-2.27-1.13,7.38,7.38,0,0,1-.87-.9,7.7,7.7,0,0,1-1.26-2.27,12.43,12.43,0,0,1-.29-1.24,7.52,7.52,0,0,1-.11-1.24V24.5Z"/><path class="cls-1" d="M238.72,24.59v4.23h-14a1,1,0,0,0-.33.07A2.39,2.39,0,0,0,224,29a.88.88,0,0,0-.28.22.44.44,0,0,0-.11.3v1.27a.37.37,0,0,0,.13.28,1.35,1.35,0,0,0,.31.19,1.49,1.49,0,0,0,.37.14,2.46,2.46,0,0,0,.37,0H235.1a5.5,5.5,0,0,1,1,.09,8.14,8.14,0,0,1,.94.21,4.92,4.92,0,0,1,.89.44,4.07,4.07,0,0,1,.76.61,3.47,3.47,0,0,1,.55.7,4.36,4.36,0,0,1,.41.87,3.94,3.94,0,0,1,.26,1,7.86,7.86,0,0,1,.09,1.22V42a6,6,0,0,1-.43,2.27,3.9,3.9,0,0,1-.48.9c-.21.27-.41.53-.61.76a8.24,8.24,0,0,1-.83.63,7.75,7.75,0,0,1-.87.5,5.12,5.12,0,0,1-1.25.37,7.52,7.52,0,0,1-1.24.11H214V43.38h15a.87.87,0,0,0,.37-.09,1.12,1.12,0,0,0,.33-.22.55.55,0,0,0,.26-.26.73.73,0,0,0,.09-.35V41.2a.66.66,0,0,0-.09-.33.67.67,0,0,0-.26-.24,1.51,1.51,0,0,0-.35-.19.87.87,0,0,0-.35-.07H218.71a6.57,6.57,0,0,1-1.24-.11,5.25,5.25,0,0,1-1.25-.37,4.46,4.46,0,0,1-.76-.43,2.82,2.82,0,0,1-.63-.61,4.05,4.05,0,0,1-.46-.68,5.63,5.63,0,0,1-.33-.76c0-.23-.1-.48-.13-.74a7.33,7.33,0,0,1,0-.83v-6.1a4.36,4.36,0,0,1,.13-1.12,6,6,0,0,1,.35-1,7.64,7.64,0,0,1,.57-.83,3.76,3.76,0,0,1,.69-.69,4.92,4.92,0,0,1,.85-.61,6.14,6.14,0,0,1,.94-.44,10.31,10.31,0,0,1,1.27-.35,6.91,6.91,0,0,1,1.26-.13Z"/><path class="cls-2" d="M70.52,33.49c0-.11,0-.21,0-.31a12.33,12.33,0,0,0-19.87-9.79,21.72,21.72,0,0,0-37.8,12.55h.35a17.48,17.48,0,0,1,15.14,8.74l-3.7,2.14h0a12,12,0,0,0-1-1.46h0a1.46,1.46,0,0,0-.16-.19,12.42,12.42,0,0,0-1.62-1.7h0a3.11,3.11,0,0,0-.28-.23,12.59,12.59,0,0,0-1.86-1.29h0l-.43-.23h0c-.26-.14-.52-.26-.78-.38h0c-.39-.17-.79-.32-1.2-.46h0L17,40.75h0c-.35-.1-.71-.2-1.07-.27h0l-.09,0h0c-.36-.07-.72-.12-1.09-.17h0l-.31,0h0c-.39,0-.79-.06-1.2-.06a13,13,0,0,0-2.66.27,13.22,13.22,0,0,0,0,25.89,13.71,13.71,0,0,0,2.66.27c.41,0,.81,0,1.2-.06l.31,0h0c.37,0,.73-.09,1.09-.16l.09,0,.3-.07.23-.06.54-.14.35-.11.33-.12.24-.09.27-.1.37-.15.57-.28.12-.06.09,0,.43-.24c.18-.1.35-.21.52-.32a.91.91,0,0,0,.13-.08l.29-.2.3-.21a3.79,3.79,0,0,0,.4-.3l.28-.22.11-.1.11-.09.26-.23.33-.35c.17-.16.33-.32.49-.49l.12-.12.1-.11c.16-.19.33-.39.48-.59a1.71,1.71,0,0,1,.11-.14h0a12.8,12.8,0,0,0,.87-1.3h0l3.7,2.14a17.69,17.69,0,0,1-3.7,4.47H67.3a16.73,16.73,0,0,0,3.22-33.14Z"/></g></svg>