<?xml version="1.0" encoding="utf-8"?>
<!-- Generator: Adobe Illustrator 25.2.1, SVG Export Plug-In . SVG Version: 6.00 Build 0)  -->
<svg version="1.1" id="Layer_1" xmlns="http://www.w3.org/2000/svg" xmlns:xlink="http://www.w3.org/1999/xlink" x="0px" y="0px"
	 viewBox="0 0 512 512" style="enable-background:new 0 0 512 512;" xml:space="preserve">
<style type="text/css">
	.st0{fill:#273B7A;}
	.st1{fill:#121149;}
	.st2{fill:#333E48;}
	.st3{fill:#38C6D9;}
	.st4{fill:#FFFFFF;}
	.st5{fill:#5C6670;}
	.st6{fill:#1E252B;}
	.st7{opacity:0.3;fill:#FFFFFF;}
</style>
<circle class="st0" cx="256" cy="256" r="256"/>
<path class="st1" d="M300.5,508.1c115.3-20.2,204-117.5,211-236.8l-156.1-192L339,296.8L158.6,434.4L300.5,508.1z"/>
<g>
	<path class="st2" d="M361.2,93.3c0-11-9-20-20-20H170.8c-11,0-20,9-20,20v325.3c0,11,9,20,20,20h170.4c11,0,20-9,20-20V93.3z"/>
	<rect x="150.8" y="109.6" class="st3" width="210.4" height="285.3"/>
	<g>
		<path class="st4" d="M314.6,281.5c11.6-13.5,18.7-31.1,18.7-50.3c0-42.7-34.6-77.2-77.2-77.2s-77.2,34.6-77.2,77.2
			s34.6,77.2,77.2,77.2c11.5,0,22.4-2.5,32.3-7.1c8,5,17.5,7.9,27.7,7.9c5.9,0,11.6-1,17-2.8C324.5,300.2,318.1,291.5,314.6,281.5z"
			/>
		<g>
			<path class="st2" d="M241.7,216.6c0-2.4,1.9-4.2,4.2-4.2h0.9c1.8,0,3.1,0.9,3.9,2.2l10.3,16.7l10.3-16.8c0.9-1.4,2.1-2.2,3.8-2.2
				h0.9c2.4,0,4.2,1.9,4.2,4.2v30.7c0,2.4-1.9,4.2-4.2,4.2c-2.3,0-4.2-1.9-4.2-4.2V228l-7.4,11.5c-0.9,1.3-2,2.2-3.5,2.2
				c-1.5,0-2.6-0.8-3.5-2.2l-7.3-11.3v19.2c0,2.3-1.9,4.1-4.2,4.1c-2.3,0-4.1-1.8-4.1-4.1L241.7,216.6L241.7,216.6L241.7,216.6z"/>
			<path class="st2" d="M288.8,247.1c-0.9-0.7-1.6-1.9-1.6-3.2c0-2.2,1.8-3.9,4-3.9c1.1,0,1.9,0.4,2.4,0.8c2.9,2.2,6.1,3.5,9.9,3.5
				c3.5,0,5.6-1.4,5.6-3.6v-0.1c0-2.2-1.3-3.3-7.8-4.9c-7.8-2-12.8-4.1-12.8-11.8v-0.1c0-7,5.6-11.6,13.5-11.6
				c4.7,0,8.8,1.2,12.2,3.4c0.9,0.6,1.9,1.7,1.9,3.4c0,2.2-1.8,3.9-4,3.9c-0.8,0-1.5-0.2-2.2-0.6c-2.8-1.7-5.5-2.6-8.1-2.6
				c-3.3,0-5,1.5-5,3.4v0.1c0,2.5,1.7,3.4,8.3,5.1c7.8,2,12.2,4.9,12.2,11.6v0.1c0,7.7-5.8,12-14.2,12
				C298.2,251.7,293.1,250.2,288.8,247.1z"/>
			<path class="st2" d="M194.4,216.6c0-2.4,1.9-4.2,4.2-4.2h0.9c1.8,0,3.1,0.9,3.9,2.2l10.3,16.7l10.3-16.8c0.9-1.4,2.1-2.2,3.8-2.2
				h0.9c2.4,0,4.2,1.9,4.2,4.2v30.7c0,2.4-1.9,4.2-4.2,4.2c-2.3,0-4.2-1.9-4.2-4.2V228l-7.4,11.5c-0.9,1.3-2,2.2-3.5,2.2
				c-1.5,0-2.6-0.8-3.5-2.2l-7.3-11.3v19.2c0,2.3-1.9,4.1-4.2,4.1c-2.3,0-4.1-1.8-4.1-4.1L194.4,216.6L194.4,216.6L194.4,216.6z"/>
		</g>
	</g>
	<circle class="st5" cx="256" cy="416.2" r="10"/>
	<g>
		<circle class="st5" cx="256" cy="86.2" r="5.1"/>
		<circle class="st6" cx="256" cy="86.2" r="2.9"/>
	</g>
	<path class="st5" d="M272.5,100.5h-33c-0.8,0-1.5-0.7-1.5-1.5s0.7-1.5,1.5-1.5h33c0.8,0,1.5,0.7,1.5,1.5S273.3,100.5,272.5,100.5z"
		/>
	<circle class="st6" cx="226.5" cy="99" r="2.5"/>
	<polygon class="st7" points="150.8,341.3 150.8,395 284,395 361.2,317.9 361.2,131 	"/>
</g>
</svg>
