<?xml version="1.0" encoding="utf-8"?>
<!-- Generator: Adobe Illustrator 25.2.1, SVG Export Plug-In . SVG Version: 6.00 Build 0)  -->
<svg version="1.1" id="Layer_1" xmlns="http://www.w3.org/2000/svg" xmlns:xlink="http://www.w3.org/1999/xlink" x="0px" y="0px"
	 viewBox="0 0 512 512" style="enable-background:new 0 0 512 512;" xml:space="preserve">
<style type="text/css">
	.st0{fill:#273B7A;}
	.st1{fill:#121149;}
	.st2{fill:#E6E6E6;}
	.st3{fill:#1E2C33;}
	.st4{fill:#F5F5F5;}
	.st5{fill:#38C6D9;}
	.st6{fill:#FFFFFF;}
</style>
<circle class="st0" cx="256" cy="256" r="256"/>
<path class="st1" d="M504.8,316.4c0-0.1-0.1-0.2-0.1-0.3c-0.2-0.8-0.5-1.4-0.8-2.1c-0.2-0.7-0.5-1.4-0.8-2c-0.2-0.8-0.5-1.4-0.8-2.1
	c-0.2-0.7-0.5-1.4-0.8-2c-0.2-0.8-0.5-1.4-0.8-2.1c-0.2-0.8-0.5-1.4-0.8-2c-0.2-0.8-0.5-1.4-0.8-2.1c-0.2-0.8-0.5-1.4-0.8-2.1
	c-0.2-0.7-0.5-1.4-0.8-2c-0.2-0.8-0.5-1.4-0.8-2.1c-0.2-0.7-0.5-1.4-0.8-2c-0.2-0.8-0.5-1.4-0.8-2.1c-0.2-0.8-0.5-1.4-0.8-2
	c-0.2-0.8-0.5-1.4-0.8-2.1c-0.2-0.7-0.5-1.4-0.8-2c-0.2-0.8-0.5-1.4-0.8-2.1c-0.2-0.8-0.5-1.4-0.8-2.1c-0.2-0.7-0.5-1.4-0.8-2
	c-0.2-0.8-0.5-1.4-0.8-2.1c-0.2-0.8-0.5-1.4-0.8-2c-0.2-0.8-0.5-1.4-0.8-2.1c-0.2-0.7-0.5-1.4-0.8-2c-0.2-0.8-0.5-1.4-0.8-2.1
	c-0.2-0.8-0.5-1.4-0.8-2c-0.2-0.7-0.5-1.4-0.8-2c-0.2-0.8-0.5-1.4-0.8-2.1c-0.2-0.8-0.5-1.4-0.8-2c-0.2-0.8-0.5-1.4-0.8-2.1
	c-0.2-0.7-0.5-1.4-0.8-2c-0.2-0.8-0.5-1.4-0.8-2.1c-0.2-0.8-0.5-1.4-0.8-2c-0.2-0.8-0.5-1.4-0.8-2.1c-0.2-0.7-0.5-1.4-0.8-2
	c-0.2-0.8-0.5-1.4-0.8-2.1c-0.2-0.8-0.5-1.4-0.8-2.1c-0.2-0.7-0.5-1.4-0.8-2c-0.2-0.8-0.5-1.4-0.8-2.1c-0.2-0.7-0.5-1.4-0.8-2
	c-0.2-0.8-0.5-1.4-0.8-2.1c-0.2-0.7-0.5-1.4-0.8-2c-0.2-0.8-0.5-1.4-0.8-2.1c-0.2-0.7-0.5-1.4-0.8-2c-0.2-0.8-0.5-1.4-0.8-2.1
	c-0.2-0.8-0.5-1.4-0.8-2.1c-0.2-0.7-0.5-1.4-0.8-2c-0.2-0.8-0.5-1.4-0.8-2.1c-0.2-0.7-0.5-1.4-0.8-2c-0.2-0.8-0.5-1.4-0.8-2.1
	c-0.2-0.7-0.5-1.4-0.8-2c-0.2-0.8-0.5-1.4-0.8-2.1c-0.2-0.8-0.5-1.4-0.8-2c-0.2-0.8-0.5-1.4-0.8-2.1c-0.2-0.8-0.5-1.4-0.8-2
	c-0.2-0.8-0.5-1.4-0.8-2c-0.2-0.8-0.5-1.4-0.8-2.1c-0.2-0.8-0.5-1.4-0.8-2.1c-0.2-0.8-0.5-1.4-0.8-2.1c-0.2-0.8-0.5-1.4-0.8-2
	c-0.2-0.8-0.5-1.4-0.8-2.1c-0.2-0.8-0.5-1.4-0.8-2c-0.2-0.8-0.5-1.4-0.8-2.1c-0.2-0.7-0.5-1.4-0.8-2c-0.2-0.8-0.5-1.4-0.8-2.1
	c-0.2-0.8-0.5-1.4-0.8-2.1c-0.2-0.8-0.5-1.4-0.8-2c-0.2-0.8-0.5-1.4-0.8-2.1c-0.2-0.8-0.5-1.4-0.8-2c-0.2-0.8-0.5-1.4-0.8-2.1
	c-0.2-0.7-0.5-1.4-0.8-2c-0.2-0.8-0.5-1.4-0.8-2.1c-0.2-0.7-0.5-1.4-0.8-2c-0.2-0.8-0.5-1.4-0.8-2.1c-0.2-0.8-0.5-1.4-0.8-2.1
	c-0.2-0.8-0.5-1.4-0.8-2c-0.2-0.8-0.5-1.4-0.8-2.1c-0.2-0.7-0.5-1.4-0.8-2c-0.2-0.8-0.5-1.4-0.8-2.1c-0.2-0.7-0.5-1.4-0.8-2
	c-0.2-0.8-0.5-1.4-0.8-2.1c-0.2-0.7-0.5-1.4-0.8-2c-0.2-0.8-0.5-1.4-0.8-2.1c-0.2-0.8-0.5-1.4-0.8-2.1c-0.2-0.7-0.5-1.4-0.8-2
	c-0.2-0.8-0.5-1.4-0.8-2.1c-0.2-0.7-0.5-1.4-0.8-2c-0.2-0.8-0.5-1.4-0.8-2.1c-0.2-0.7-0.5-1.4-0.8-2c-0.2-0.8-0.5-1.4-0.8-2.1
	c-0.2-0.7-0.5-1.4-0.8-2c-0.2-0.8-0.5-1.4-0.8-2.1c-0.2-0.7-0.5-1.4-0.8-2c-0.2-0.8-0.5-1.4-0.8-2.1c-0.2-0.8-0.5-1.4-0.8-2.1
	c-0.9-3.3-3.8-5.3-7.7-5.3H92c-4.8,0-8,3-8,8v176v32c0,1.6,0.4,3,1.1,4.2c0.2,0.7,0.5,1.4,0.8,2c0.2,0.7,0.5,1.4,0.8,2
	c0.2,0.7,0.5,1.4,0.8,2.1c0.2,0.7,0.5,1.4,0.8,2c0.2,0.7,0.5,1.4,0.8,2.1c0.2,0.7,0.5,1.4,0.8,2c0.2,0.8,0.5,1.4,0.8,2.1
	c0.2,0.7,0.5,1.4,0.8,2c0.2,0.7,0.5,1.4,0.8,2.1c0.2,0.7,0.5,1.4,0.8,2c0.2,0.8,0.5,1.4,0.8,2.1c0.2,0.7,0.5,1.4,0.8,2
	c0.2,0.7,0.5,1.4,0.8,2.1c0.2,0.8,0.5,1.4,0.8,2.1c0.2,0.7,0.5,1.4,0.8,2c0.2,0.7,0.5,1.4,0.8,2.1c0.2,0.7,0.5,1.4,0.8,2
	c0.2,0.8,0.5,1.4,0.8,2.1c0.2,0.7,0.5,1.4,0.8,2c0.2,0.8,0.5,1.4,0.8,2.1c0.2,0.7,0.5,1.4,0.8,2c0.2,0.7,0.5,1.4,0.8,2.1
	c0.2,0.7,0.5,1.4,0.8,2.1c0.2,0.7,0.5,1.4,0.8,2c0.2,0.7,0.5,1.4,0.8,2.1c0.2,0.7,0.5,1.4,0.8,2c0.2,0.8,0.5,1.4,0.8,2.1
	c0.2,0.7,0.5,1.4,0.8,2c0.2,0.7,0.5,1.4,0.8,2.1c0.2,0.7,0.5,1.4,0.8,2c0.2,0.7,0.5,1.4,0.8,2c0.2,0.7,0.5,1.4,0.8,2.1
	c0.2,0.7,0.5,1.4,0.8,2c0.2,0.8,0.5,1.4,0.8,2.1c0.2,0.7,0.5,1.4,0.8,2c0.2,0.7,0.5,1.4,0.8,2.1c0.2,0.7,0.5,1.4,0.8,2
	c0.2,0.7,0.5,1.4,0.8,2.1c0.2,0.7,0.5,1.4,0.8,2.1c0.2,0.7,0.5,1.4,0.8,2.1c0.2,0.8,0.5,1.4,0.8,2.1c0.2,0.7,0.5,1.4,0.8,2
	c0.2,0.7,0.5,1.4,0.8,2.1c0.2,0.7,0.5,1.4,0.8,2c0.2,0.8,0.5,1.4,0.8,2.1c0.2,0.7,0.5,1.4,0.8,2c0.2,0.8,0.5,1.4,0.8,2.1
	c0.2,0.7,0.5,1.4,0.8,2c0.2,0.7,0.5,1.4,0.8,2.1c0.2,0.7,0.5,1.4,0.8,2c0.2,0.7,0.5,1.4,0.8,2.1c0.2,0.7,0.5,1.4,0.8,2.1
	c0.2,0.7,0.5,1.4,0.8,2c0.2,0.8,0.5,1.4,0.8,2.1c0.2,0.7,0.5,1.4,0.8,2c0.2,0.7,0.5,1.4,0.8,2.1c0.2,0.7,0.5,1.4,0.8,2
	c0.2,0.8,0.5,1.4,0.8,2.1c0.2,0.7,0.5,1.4,0.8,2c0.2,0.7,0.5,1.4,0.8,2c0.2,0.8,0.5,1.4,0.8,2.1c0.2,0.7,0.5,1.4,0.8,2
	c0.2,0.7,0.5,1.4,0.8,2.1c0.2,0.7,0.5,1.4,0.8,2c0.2,0.8,0.5,1.4,0.8,2.1c0.2,0.7,0.5,1.4,0.8,2c0.2,0.8,0.5,1.4,0.8,2.1
	c0.2,0.7,0.5,1.4,0.8,2c0.2,0.7,0.5,1.4,0.8,2.1c0.2,0.7,0.5,1.4,0.8,2.1c0.2,0.7,0.5,1.4,0.8,2c0.1,0.2,0.2,0.4,0.2,0.6
	C177.9,502.8,215.9,512,256,512C376.6,512,477.6,428.6,504.8,316.4z"/>
<rect x="212" y="344" class="st2" width="88" height="36"/>
<path class="st3" d="M84,304V128c0-5,3.2-8,8-8h328c4.8,0,8,3,8,8v176H84z"/>
<path class="st4" d="M84,304v32c0,4.8,3.4,8,8.2,8H420c4.8,0,8-3.2,8-8v-32H84z"/>
<rect x="100" y="136" class="st5" width="312" height="152"/>
<path class="st4" d="M328,388c0-4.4-3.6-8-8-8H192c-4.4,0-8,3.6-8,8l0,0c0,4.4,3.6,8,8,8h128C324.4,396,328,392.4,328,388L328,388z"
	/>
<circle class="st3" cx="256.2" cy="320" r="8"/>
<path class="st6" d="M317.3,222.5c2.2-3.6,3.6-7.8,3.6-12.3c0-12.7-10.3-23-23-23c-5.2,0-10.1,1.8-13.9,4.7
	c-2.9-7.1-9.9-12.1-18-12.1c-3.7,0-7.1,1-10,2.8c-5.5-6.9-14.1-11.3-23.6-11.3c-16.7,0-30.3,13.6-30.3,30.3c0,2.6,0.3,5.2,1,7.6
	c-12.1,1.4-21.5,11.7-21.5,24.3c0,13.5,10.9,24.4,24.4,24.4h106.5c10,0,18-8.1,18-18C330.5,231.5,324.9,224.6,317.3,222.5z"/>
</svg>
