<?xml version="1.0" encoding="utf-8"?>
<!-- Generator: Adobe Illustrator 25.2.1, SVG Export Plug-In . SVG Version: 6.00 Build 0)  -->
<svg version="1.1" id="Layer_1" xmlns="http://www.w3.org/2000/svg" xmlns:xlink="http://www.w3.org/1999/xlink" x="0px" y="0px"
	 viewBox="0 0 512 512" style="enable-background:new 0 0 512 512;" xml:space="preserve">
<style type="text/css">
	.st0{fill:#273B7A;}
	.st1{fill:#121149;}
	.st2{fill:#71E2EF;}
	.st3{fill:#38C6D9;}
</style>
<circle class="st0" cx="256" cy="256" r="256"/>
<path class="st1" d="M300.5,508.1c115.3-20.2,204-117.5,211-236.8L391.7,151.5L339,296.8l-218.2,31.6L300.5,508.1z"/>
<path class="st2" d="M377.4,145.8H134.6c-11.5,0-20.8,9.3-20.8,20.8v146.2c0,11.5,9.3,20.8,20.8,20.8h92.9l19.9,37.2
	c3.7,6.9,13.5,6.9,17.2,0l19.9-37.2h92.9c11.5,0,20.8-9.3,20.8-20.8V166.6C398.2,155.1,388.9,145.8,377.4,145.8z"/>
<path class="st3" d="M377.4,145.8h-122V376c3.6,0.2,7.2-1.5,9.2-5.1l19.9-37.2h92.9c11.5,0,20.8-9.3,20.8-20.8V166.6
	C398.2,155.1,388.9,145.8,377.4,145.8z"/>
<g>
	<rect x="170.7" y="196.5" class="st0" width="170.7" height="5.2"/>
	<rect x="170.7" y="225" class="st0" width="170.7" height="5.2"/>
	<rect x="170.7" y="253.4" class="st0" width="170.7" height="5.2"/>
	<rect x="170.7" y="281.9" class="st0" width="170.7" height="5.2"/>
</g>
<g>
	<rect x="255.4" y="196.5" class="st1" width="85.9" height="5.2"/>
	<rect x="255.4" y="225" class="st1" width="85.9" height="5.2"/>
	<rect x="255.4" y="253.4" class="st1" width="85.9" height="5.2"/>
	<rect x="255.4" y="281.9" class="st1" width="85.9" height="5.2"/>
</g>
</svg>
