<?xml version="1.0" encoding="utf-8"?>
<!-- Generator: Adobe Illustrator 25.2.1, SVG Export Plug-In . SVG Version: 6.00 Build 0)  -->
<svg version="1.1" id="Layer_1" xmlns="http://www.w3.org/2000/svg" xmlns:xlink="http://www.w3.org/1999/xlink" x="0px" y="0px"
	 viewBox="0 0 512 512" style="enable-background:new 0 0 512 512;" xml:space="preserve">
<style type="text/css">
	.st0{fill:#273B7A;}
	.st1{fill:#121149;}
	.st2{fill:#71E2EF;}
	.st3{fill:#38C6D9;}
	.st4{fill:#E6E6E6;}
	.st5{fill:#CCCCCC;}
</style>
<circle class="st0" cx="256" cy="256" r="256"/>
<path class="st1" d="M385.8,151.5c-12,53.3-20.7,109.5-57.4,151c-12.1,13.8-24.1,25.9-37.9,39.6c-10.3,12.1-29.3,12.1-44.8,17.2
	c-6.9,1.7-10.3,10.3-17.2,12.1c-25.2,6.6-51.1,9-76,15.2l124.5,124.5c124.7-10.1,224.1-109.5,234.2-234.2L385.8,151.5z"/>
<path class="st2" d="M225.2,106c-68.3,0-123.9,55.6-123.9,123.9s55.6,123.9,123.9,123.9s123.9-55.6,123.9-123.9S293.5,106,225.2,106
	z M307.6,300.2c-5-4.7-10.4-8.9-16-12.7c5.1-15.3,8.2-32.3,8.9-50.1h32.8C331.6,261.3,322.2,283.1,307.6,300.2z M142.8,159.7
	c5,4.7,10.4,8.9,16,12.7c-5.1,15.3-8.2,32.3-8.9,50.1h-32.8C118.7,198.5,128.1,176.8,142.8,159.7z M155.4,309.1c2.9-2.6,6-5,9.1-7.2
	c1.9,4.1,4,8.1,6.2,11.9c2.3,3.8,4.7,7.3,7.3,10.6C169.9,320.3,162.3,315.2,155.4,309.1z M225.2,267.6c-4.6,0-9.2,0.3-13.7,0.8
	c-0.7-9.4-1.1-19.7-1.3-30.9h30c-0.1,11.3-0.6,21.6-1.3,30.9C234.4,267.9,229.8,267.6,225.2,267.6z M237.6,283.5
	c-3.2,29.1-8.6,46.2-12.4,51.1c-3.8-4.9-9.2-22.1-12.4-51.1c4.1-0.5,8.2-0.7,12.4-0.7S233.5,283,237.6,283.5z M210.2,222.4
	c0.1-11.3,0.6-21.6,1.3-30.9c4.5,0.5,9.1,0.8,13.7,0.8c4.6,0,9.2-0.3,13.7-0.8c0.7,9.4,1.1,19.7,1.3,30.9H210.2z M225.2,177.1
	c-4.2,0-8.3-0.3-12.4-0.7c3.2-29.1,8.6-46.2,12.4-51.1c3.8,4.9,9.2,22.1,12.4,51.1C233.5,176.9,229.4,177.1,225.2,177.1z M178,135.5
	c-2.5,3.3-5,6.8-7.3,10.6c-2.3,3.8-4.3,7.7-6.2,11.9c-3.1-2.2-6.2-4.6-9.1-7.2C162.3,144.6,169.9,139.5,178,135.5z M206.7,129.7
	c-1.8,5.2-3.4,11.4-4.9,18.8c-1.5,7.6-2.8,16-3.8,25.1c-7-1.9-13.8-4.5-20.3-7.7C185,149.2,195.1,136.4,206.7,129.7z M196.5,188.8
	c-0.8,10.7-1.3,22-1.5,33.6h-30c0.6-15.1,3.2-29.5,7.2-42.3C180,183.8,188.1,186.8,196.5,188.8z M195.1,237.5
	c0.1,11.6,0.6,22.9,1.5,33.6c-8.4,2-16.5,5-24.2,8.7c-4-12.8-6.6-27.2-7.2-42.3H195.1z M198,286.3c1,9.1,2.3,17.5,3.8,25.1
	c1.5,7.3,3.1,13.5,4.9,18.8c-11.5-6.8-21.6-19.6-29-36.2C184.1,290.7,190.9,288.1,198,286.3z M272.4,324.4c2.5-3.3,5-6.8,7.3-10.6
	c2.3-3.8,4.3-7.7,6.2-11.9c3.1,2.2,6.2,4.6,9.1,7.2C288.1,315.2,280.5,320.3,272.4,324.4z M243.7,330.2c1.8-5.2,3.4-11.4,4.9-18.8
	c1.5-7.6,2.8-16,3.8-25.1c7,1.9,13.8,4.5,20.3,7.7C265.3,310.6,255.2,323.4,243.7,330.2z M253.8,271c0.8-10.7,1.3-21.9,1.5-33.6h30
	c-0.6,15.1-3.2,29.5-7.2,42.3C270.4,276,262.2,273.1,253.8,271z M255.3,222.4c-0.1-11.6-0.6-22.9-1.5-33.6c8.4-2,16.5-5,24.2-8.7
	c4,12.8,6.6,27.2,7.2,42.3H255.3z M252.4,173.6c-1-9.1-2.3-17.5-3.8-25.1c-1.5-7.3-3.1-13.6-4.9-18.8c11.5,6.8,21.6,19.6,29,36.2
	C266.2,169.1,259.4,171.7,252.4,173.6z M279.7,146.1c-2.3-3.8-4.7-7.3-7.3-10.6c8.1,4.1,15.7,9.2,22.6,15.3c-2.9,2.6-6,5-9.1,7.2
	C284,153.8,281.9,149.8,279.7,146.1z M149.9,237.5c0.7,17.7,3.7,34.7,8.9,50c-5.6,3.7-11,8-16,12.7c-14.6-17.1-24-38.9-25.7-62.7
	L149.9,237.5L149.9,237.5z M300.5,222.4c-0.7-17.7-3.7-34.7-8.9-50.1c5.6-3.7,11-8,16-12.7c14.6,17.1,24,38.9,25.7,62.7L300.5,222.4
	L300.5,222.4z"/>
<path class="st3" d="M225.2,106c-0.3,0-0.5,0-0.8,0v20.4c0.3-0.4,0.5-0.8,0.8-1.2c3.8,4.9,9.2,22.1,12.4,51.1
	c-4.1,0.5-8.2,0.7-12.4,0.7c-0.3,0-0.5,0-0.8,0v15.1c0.3,0,0.5,0,0.8,0c4.6,0,9.2-0.3,13.7-0.8c0.7,9.4,1.1,19.7,1.3,30.9h-15.8
	v15.1h15.8c-0.1,11.3-0.6,21.6-1.3,30.9c-4.5-0.5-9.1-0.8-13.7-0.8c-0.3,0-0.5,0-0.8,0v15.1c0.3,0,0.5,0,0.8,0
	c4.2,0,8.3,0.3,12.4,0.7c-3.2,29.1-8.6,46.2-12.4,51.1c-0.3-0.3-0.5-0.7-0.8-1.2v20.4c0.3,0,0.5,0,0.8,0
	c68.3,0,123.9-55.6,123.9-123.9S293.5,106,225.2,106z M333.3,222.4h-32.8c-0.7-17.7-3.7-34.7-8.9-50.1c5.6-3.7,11-8,16-12.7
	C322.2,176.8,331.6,198.5,333.3,222.4z M295,150.7c-2.9,2.6-6,5-9.1,7.2c-1.9-4.1-4-8.1-6.2-11.9c-2.3-3.8-4.7-7.3-7.3-10.6
	C280.5,139.5,288.1,144.6,295,150.7z M255.3,222.4c-0.1-11.6-0.6-22.9-1.5-33.6c8.4-2,16.5-5,24.2-8.7c4,12.8,6.6,27.2,7.2,42.3
	H255.3z M285.3,237.5c-0.6,15.1-3.2,29.5-7.2,42.3c-7.7-3.8-15.9-6.7-24.2-8.7c0.8-10.7,1.3-21.9,1.5-33.6L285.3,237.5L285.3,237.5z
	 M272.7,165.8c-6.5,3.3-13.3,5.9-20.3,7.7c-1-9.1-2.3-17.5-3.8-25.1c-1.5-7.3-3.1-13.6-4.9-18.8
	C255.2,136.4,265.3,149.2,272.7,165.8z M243.7,330.2c1.8-5.2,3.4-11.4,4.9-18.8c1.5-7.6,2.8-16,3.8-25.1c7,1.9,13.8,4.5,20.3,7.7
	C265.3,310.6,255.2,323.4,243.7,330.2z M272.4,324.4c2.5-3.3,5-6.8,7.3-10.6c2.3-3.8,4.3-7.7,6.2-11.9c3.1,2.2,6.2,4.6,9.1,7.2
	C288.1,315.2,280.5,320.3,272.4,324.4z M307.6,300.2c-5-4.7-10.4-8.9-16-12.7c5.1-15.3,8.2-32.3,8.9-50.1h32.8
	C331.6,261.3,322.2,283.1,307.6,300.2z"/>
<path class="st4" d="M335.5,335.5c52.2-52.2,84.4-106.8,57-152.3L343,232.8c15.1,28.7-7.3,50.5-33.6,76.7
	c-26.2,26.2-48,48.7-76.7,33.6l-49.5,49.5C228.7,419.9,283.4,387.7,335.5,335.5z"/>
<g>
	<path class="st5" d="M194.8,387l30.1-30.1c11.6-11.6,11.6-30.4,0-42l-6.5-6.5c-5.3-5.3-14-5.3-19.4,0l-52.7,52.7
		c-5.3,5.3-5.3,14,0,19.4l6.5,6.5C164.4,398.6,183.2,398.6,194.8,387z"/>
	<path class="st5" d="M356.9,224.8l30.1-30.1c11.6-11.6,11.6-30.4,0-42l-6.5-6.5c-5.3-5.3-14-5.3-19.4,0l-52.7,52.7
		c-5.3,5.3-5.3,14,0,19.4l6.5,6.5C326.5,236.4,345.3,236.4,356.9,224.8z"/>
</g>
</svg>
